<svg width="20" height="20" viewBox="0 0 20 20" fill="none" xmlns="http://www.w3.org/2000/svg">
<g clip-path="url(#clip0_15_56)">
<path d="M18.75 1.87303L13.7456 1.87305V0.627426C13.7456 0.282114 13.4659 0.00242615 13.1206 0.00242615C12.7753 0.00242615 12.4956 0.282114 12.4956 0.627426V1.87274H7.49563V0.627426C7.49563 0.282114 7.21594 0.00242615 6.87063 0.00242615C6.52531 0.00242615 6.24563 0.282114 6.24563 0.627426V1.87274H1.25C0.559687 1.87274 0 2.43243 0 3.12274V18.7477C0 19.438 0.559687 19.9977 1.25 19.9977H18.75C19.4403 19.9977 20 19.438 20 18.7477V3.12274C20 2.43272 19.4403 1.87303 18.75 1.87303ZM18.75 18.7477H1.25V3.12274H6.24563V3.75243C6.24563 4.09772 6.52531 4.37743 6.87063 4.37743C7.21594 4.37743 7.49563 4.09772 7.49563 3.75243V3.12305H12.4956V3.75274C12.4956 4.09805 12.7753 4.37774 13.1206 4.37774C13.4659 4.37774 13.7456 4.09805 13.7456 3.75274V3.12305H18.75V18.7477ZM14.375 9.99803H15.625C15.97 9.99803 16.25 9.71803 16.25 9.37303V8.12303C16.25 7.77803 15.97 7.49803 15.625 7.49803H14.375C14.03 7.49803 13.75 7.77803 13.75 8.12303V9.37303C13.75 9.71803 14.03 9.99803 14.375 9.99803ZM14.375 14.9977H15.625C15.97 14.9977 16.25 14.718 16.25 14.3727V13.1227C16.25 12.7777 15.97 12.4977 15.625 12.4977H14.375C14.03 12.4977 13.75 12.7777 13.75 13.1227V14.3727C13.75 14.7183 14.03 14.9977 14.375 14.9977ZM10.625 12.4977H9.375C9.03 12.4977 8.75 12.7777 8.75 13.1227V14.3727C8.75 14.718 9.03 14.9977 9.375 14.9977H10.625C10.97 14.9977 11.25 14.718 11.25 14.3727V13.1227C11.25 12.778 10.97 12.4977 10.625 12.4977ZM10.625 7.49803H9.375C9.03 7.49803 8.75 7.77803 8.75 8.12303V9.37303C8.75 9.71803 9.03 9.99803 9.375 9.99803H10.625C10.97 9.99803 11.25 9.71803 11.25 9.37303V8.12303C11.25 7.77772 10.97 7.49803 10.625 7.49803ZM5.625 7.49803H4.375C4.03 7.49803 3.75 7.77803 3.75 8.12303V9.37303C3.75 9.71803 4.03 9.99803 4.375 9.99803H5.625C5.97 9.99803 6.25 9.71803 6.25 9.37303V8.12303C6.25 7.77772 5.97 7.49803 5.625 7.49803ZM5.625 12.4977H4.375C4.03 12.4977 3.75 12.7777 3.75 13.1227V14.3727C3.75 14.718 4.03 14.9977 4.375 14.9977H5.625C5.97 14.9977 6.25 14.718 6.25 14.3727V13.1227C6.25 12.778 5.97 12.4977 5.625 12.4977Z" fill="#3B82F6"/>
</g>
<defs>
<clipPath id="clip0_15_56">
<rect width="20" height="20" fill="white"/>
</clipPath>
</defs>
</svg>
