<svg width="24" height="24" viewBox="0 0 24 24" fill="none" xmlns="http://www.w3.org/2000/svg">
<path d="M18.75 2.5H18.25V3V5.60544C18.205 6.16595 18.0551 6.83572 17.75 7.50369C17.75 7.50246 17.75 7.50123 17.75 7.5C17.75 7.14988 17.58 6.84162 17.3692 6.63082C17.1584 6.42002 16.8501 6.25 16.5 6.25H7.5C6.88052 6.25 6.25 6.74622 6.25 7.5C6.25 7.50123 6.25 7.50246 6.25 7.50369C5.94486 6.83572 5.795 6.16595 5.75 5.60544V3V2.5H5.25C5.1837 2.5 5.12011 2.47366 5.07322 2.42678C5.02634 2.37989 5 2.3163 5 2.25C5 2.1837 5.02634 2.12011 5.07322 2.07322C5.12011 2.02634 5.1837 2 5.25 2H18.75C18.8163 2 18.8799 2.02634 18.9268 2.07322C18.9737 2.12011 19 2.18369 19 2.25C19 2.31631 18.9737 2.37989 18.9268 2.42678C18.8799 2.47366 18.8163 2.5 18.75 2.5ZM13.4209 13.3577C16.9875 13.9288 18.112 16.6754 18.25 18.3946V19.0425C17.8757 17.6674 17.1208 16.6477 16.2576 15.9284C15.2583 15.0957 14.1117 14.6635 13.25 14.5388V13.3303L13.4209 13.3577ZM18.25 21.5H18.5H18.75C18.8163 21.5 18.8799 21.5263 18.9268 21.5732C18.9737 21.6201 19 21.6837 19 21.75C19 21.8163 18.9737 21.8799 18.9268 21.9268C18.8799 21.9737 18.8163 22 18.75 22H5.25C5.1837 22 5.12011 21.9737 5.07322 21.9268C5.02634 21.8799 5 21.8163 5 21.75C5 21.6837 5.02634 21.6201 5.07322 21.5732C5.12011 21.5263 5.1837 21.5 5.25 21.5H5.5H5.75H6H18H18.25ZM7.74241 15.9284C6.87924 16.6477 6.12427 17.6674 5.75 19.0425V18.3946C5.88803 16.6753 7.01257 13.9281 10.579 13.3577L10.75 13.3304V14.5388C9.88828 14.6635 8.74166 15.0957 7.74241 15.9284Z" fill="#3B82F6" stroke="#3B82F6"/>
</svg>
